# xmcd
#
# Track frame offsets:
#	150
#	17605
#	36292
#	55263
#	72821
#	88924
#	105780
#	123427
#	139112
#	158972
#	174866
#	192555
#	206921
#	227875
#	246857
#
# Disc length: 3549 seconds
#
# Revision: 2
# Processed by: cddbd v1.5.2PL0 Copyright (c) Steve Scherf et al.
# Submitted via: EasyCDDAExtractor 15.3.0.1
#
DISCID=ce0ddb0f
DTITLE=Paulina Rubio - 30 Exitos Insuperables - CD 1
DYEAR=2003
DGENRE=Latin
TTITLE0=Amor De Mujer
TTITLE1=El Me Engaño
TTITLE2=Te Daria Mi Vida
TTITLE3=Si Te Marchas Con Otra
TTITLE4=Vuelve Junto A Mi
TTITLE5=Mio
TTITLE6=Hoy Te Deje De Amar
TTITLE7=Enamorada
TTITLE8=Nada Puedes Hacer
TTITLE9=Sabor A Miel
TTITLE10=Besame En La Boca
TTITLE11=Despiertate
TTITLE12=Abriendo Las Puertas Al Amor
TTITLE13=Miel Y Sal
TTITLE14=Solo Por Ti
EXTD=
EXTT0=
EXTT1=
EXTT2=
EXTT3=
EXTT4=
EXTT5=
EXTT6=
EXTT7=
EXTT8=
EXTT9=
EXTT10=
EXTT11=
EXTT12=
EXTT13=
EXTT14=
PLAYORDER=
